<svg width="1229" height="219" xmlns="http://www.w3.org/2000/svg" xmlns:xlink="http://www.w3.org/1999/xlink" xml:space="preserve" overflow="hidden"><g transform="translate(-54 -23)"><path d="M59.0001 62.6677C59.0001 43.5212 74.5214 27.9998 93.6678 27.9998L1243.33 27.9998C1262.48 27.9998 1278 43.5212 1278 62.6677L1278 201.332C1278 220.479 1262.48 236 1243.33 236L93.6678 236C74.5214 236 59.0001 220.479 59.0001 201.332Z" stroke="#473D31" stroke-width="10.3125" stroke-miterlimit="8" fill="#262420" fill-rule="evenodd"/><path d="M0 0 0.306759 194.792" stroke="#1B1915" stroke-width="6.875" stroke-miterlimit="8" fill="none" fill-rule="evenodd" transform="matrix(-1 0 0 1 290.807 36.4999)"/><path d="M172.881 176.229C173.19 176.567 184.107 180.665 188.685 181.552 193.263 182.439 199.446 182.171 200.348 181.552L203.052 179.693 198.235 180.115C195.601 180.172 191.051 180.172 186.825 179.524 182.6 178.876 172.571 175.891 172.881 176.229ZM192.033 73.0239C192.957 72.9812 193.878 72.9965 194.821 73.0603 198.592 73.3157 202.01 74.7238 205.571 76.7554 209.132 78.7869 213.38 81.9412 216.186 85.2495 218.992 88.5577 221.189 93.3606 222.406 96.605 223.623 99.8494 223.458 102.782 223.488 104.716 223.518 106.65 223.398 107.082 222.586 108.208 221.775 109.335 219.867 111.066 218.62 111.475 217.373 111.885 215.172 113.188 215.104 110.664 214.473 108.366 216.366 101.336 214.834 97.6865 213.301 94.0365 206.585 89.0797 205.909 88.7643 205.233 88.4489 209.609 93.293 210.777 96.1319 211.945 98.9707 212.873 103.105 212.918 105.798 212.963 108.49 211.72 110.844 211.047 112.286 210.375 113.728 209.875 114.089 208.884 114.449 207.892 114.81 205.864 114.81 205.097 114.449 204.331 114.089 204.226 114.701 204.286 112.286 204.346 109.872 206.405 103.477 205.458 99.9621 204.512 96.4473 199.012 90.9723 198.607 91.1976 198.201 91.4229 202.652 98.0169 203.024 101.314 203.396 104.611 201.845 108.52 200.838 110.98 199.831 113.439 198.483 115.133 196.984 116.072 195.485 117.01 193.04 116.992 191.846 116.612 190.651 116.233 189.167 116.203 189.817 113.796 190.467 111.389 195.88 107.041 195.745 102.17 195.609 97.2997 190.674 94.2167 189.682 94.7124 188.803 95.3207 194.212 99.0609 191.034 105.257 190.223 108.186 188.15 110.664 184.814 112.286 181.479 113.909 174.672 114.404 171.021 114.99 167.37 115.576 162.412 114.9 162.908 115.801 163.404 116.702 171.9 117.153 173.996 120.398 175.536 123.484 174.154 130.829 173.613 134.66 173.072 138.49 171.791 141.1 170.751 143.379 169.71 145.658 168.903 146.038 167.37 148.336 165.838 150.634 162.187 155.275 161.556 157.168L162.908 158.79 178.594 147.705C183.822 144.01 188.878 142.699 196.939 143.92 205 145.14 204.143 148.584 206.675 149.62 209.207 150.656 210.059 148.696 212.129 150.138 214.199 151.58 217.47 155.703 219.093 158.272L221.865 165.549C222.136 164.828 222.496 156.988 221.054 154.734L216.727 147.975C222.857 147.434 231.241 146.556 235.117 146.353 238.993 146.15 239.76 148.493 240.526 150.949 241.292 153.405 240.932 164.085 240.796 168.794 240.661 173.503 237.664 181.208 235.928 184.205 234.193 187.201 229.325 188.824 226.192 189.612 223.06 190.401 218.146 188.688 215.645 186.368 211.701 188.373 203.587 191.505 196.263 191.933 188.938 192.361 179.27 190.694 171.495 188.553 163.719 186.413 155.73 181.347 149.611 179.09 143.492 176.833 138.696 178.215 134.782 175.012 130.868 171.809 126.691 164.851 126.127 159.871 125.564 154.892 127.029 151.941 127.48 147.975 127.93 144.01 135.818 131.911 139.199 124.498 142.579 117.085 145.231 105.805 149.814 99.1284 154.396 92.4518 161.06 88.1785 166.694 84.4384 172.347 80.5481 178.256 77.1196 182.943 75.2233 186.459 73.801 189.261 73.1519 192.033 73.0239Z" fill="#A08A6E" fill-rule="evenodd"/><path d="M203 120.361C203.328 119.506 203.128 117.908 205.623 117.015 208.119 116.123 216.407 115.788 217.974 115.008 219.54 114.227 220.123 113.558 220.487 113L224.75 113.223C225.333 113.967 224.823 115.733 223.985 117.461 223.147 119.19 221.763 123.224 219.722 123.596 217.682 123.968 209.485 124.228 208.028 123.707L203.656 122.146 203 120.361Z" fill="#A08A6E" fill-rule="evenodd"/><text fill="#A08A6E" font-family="Amasis MT Pro Medium,Amasis MT Pro Medium_MSFontService,sans-serif" font-weight="500" font-size="92" transform="matrix(1 0 0 1 526.97 165)">ATHLETICS</text></g></svg>