<svg width="113" height="159" xmlns="http://www.w3.org/2000/svg" xmlns:xlink="http://www.w3.org/1999/xlink" xml:space="preserve" overflow="hidden"><defs><clipPath id="clip0"><rect x="126" y="305" width="113" height="159"/></clipPath></defs><g clip-path="url(#clip0)" transform="translate(-126 -305)"><path d="M128.937 305.301C126.492 305.863 126.516 306.068 126 308.547 142.428 331.536 161.951 353.933 174.893 377.642 175.783 386.548 171.345 395.071 168.318 399.817L174.04 412.481 183.951 435.09 183.09 457.924 174.83 459.512C173.277 460.822 172.018 462.468 174.697 463.346 179.513 463.948 180.882 463.942 186.619 464 191.584 463.183 190.554 463.455 192.405 461.502 194.231 452.773 195.038 443.228 196.628 434.307L190.653 413.325C199.842 404.854 209.447 392.149 200.764 371.947 215.629 364.83 235.038 355.473 238.305 351.939 239.64 348.085 239.564 344.294 233.377 340.759L195.997 322.186C190.995 321.536 186.228 323.381 188.357 328.554L217.993 347.042 185.597 357.28C167.958 339.996 152.808 323.081 133.622 305.557 132.556 305.045 131.383 304.739 128.937 305.301Z" fill="#A08A6E" fill-rule="evenodd"/><path d="M139 411.5C139 404.596 145.716 399 154 399 162.284 399 169 404.596 169 411.5 169 418.403 162.284 424 154 424 145.716 424 139 418.403 139 411.5Z" fill="#A08A6E" fill-rule="evenodd"/><path d="M162.137 425.634C164.88 424.718 169.911 420.326 171.495 418L175 425.755 171.379 441.436C167.642 448.057 163.731 454.75 159.878 461.323 158.719 462.125 157.502 462.49 156.228 462.708L140.845 463C136.915 461.736 136.808 457.627 142.091 456.582L151.708 456.436C155.223 449.734 158.043 442.789 161.21 435.966L162.137 425.634Z" fill="#A08A6E" fill-rule="evenodd"/></g></svg>