<svg width="156" height="146" xmlns="http://www.w3.org/2000/svg" xmlns:xlink="http://www.w3.org/1999/xlink" xml:space="preserve" overflow="hidden"><defs><clipPath id="clip0"><rect x="1408" y="76" width="156" height="146"/></clipPath></defs><g clip-path="url(#clip0)" transform="translate(-1408 -76)"><path d="M1408.03 147.908C1407.6 139.29 1411.57 118.739 1425.65 117.001 1435.84 116.872 1444.5 135.211 1443.98 147.972 1444.3 160.089 1431.9 166.011 1425.91 166 1419.92 165.989 1408.27 159.552 1408.03 147.908Z" fill="#AC987A" fill-rule="evenodd"/><path d="M1528.03 147.539C1527.6 138.745 1531.57 117.775 1545.65 116 1555.84 115.869 1564.5 134.583 1563.98 147.604 1564.3 159.969 1551.9 166.011 1545.91 166 1539.92 165.989 1528.27 159.42 1528.03 147.539Z" fill="#AC987A" fill-rule="evenodd"/><path d="M1491.03 110.692C1490.55 101.02 1494.96 77.9523 1510.61 76.0007 1521.94 75.8561 1531.55 96.441 1530.98 110.765 1531.34 124.366 1517.55 131.012 1510.9 131 1504.24 130.988 1491.3 123.762 1491.03 110.692Z" fill="#AC987A" fill-rule="evenodd"/><path d="M1441.03 110.692C1440.55 101.02 1444.96 77.9523 1460.61 76.0007 1471.94 75.8561 1481.55 96.441 1480.98 110.765 1481.34 124.366 1467.55 131.012 1460.9 131 1454.24 130.988 1441.3 123.762 1441.03 110.692Z" fill="#AC987A" fill-rule="evenodd"/><path d="M1460.26 219.784C1483.32 205.804 1499.14 214.297 1506.53 217.824 1539.39 233.058 1559.17 189.63 1529.33 174.553L1509.85 152.394C1501.86 136.612 1477.55 128.407 1462.17 150.513 1452.27 160.686 1459.72 158.84 1438.67 176.33 1410.97 196.519 1438.46 231.081 1460.26 219.784Z" fill="#AC987A" fill-rule="evenodd"/></g></svg>