<svg width="196" height="188" xmlns="http://www.w3.org/2000/svg" xmlns:xlink="http://www.w3.org/1999/xlink" xml:space="preserve" overflow="hidden"><defs><clipPath id="clip0"><rect x="74" y="1041" width="196" height="188"/></clipPath></defs><g clip-path="url(#clip0)" transform="translate(-74 -1041)"><path d="M193.926 1146.13C187.135 1146.08 180.934 1146.96 175.003 1147.95 169.145 1150.03 164.441 1151.92 160.889 1155.97L159.918 1157.23 161.028 1158.72C165.463 1153.93 171.739 1154.24 178.601 1153.88 189.072 1150.64 194.289 1150.34 201.148 1149.12L203.772 1148.62 203.344 1146.83 200.926 1146.51C198.519 1146.26 196.19 1146.14 193.926 1146.13ZM245.247 1135.84C240.337 1139.58 237.102 1143.65 230.519 1147.06 225.853 1148.22 222.328 1148.77 218.97 1148.92L217.375 1148.95 233.319 1149.95 233.113 1149.69C239.04 1146.41 241.202 1140.45 245.247 1135.84ZM163.004 1041C170.648 1041.02 179.452 1042.82 183.288 1046.13L176.258 1056.99 158.517 1061.33C146.467 1064.73 138.434 1070.97 138.434 1084.05 141.167 1099.25 134.528 1102.26 125.044 1095.58 114.779 1094.69 106.02 1101.48 99.2698 1111.95 98.0424 1115.9 98.8235 1120.19 98.6003 1124.31L100.776 1130.49C103.287 1111.95 107.973 1104.1 126.885 1100.59 138.099 1106.6 145.965 1098.75 146.132 1085.39 147.862 1076.14 157.123 1066.9 166.049 1067.35 177.988 1064.12 183.065 1054.71 191.656 1047.8 202.591 1046.13 209.174 1049.3 214.418 1052.31L228.309 1063.84C232.996 1068.63 230.987 1069.41 229.313 1070.19L226.816 1074.17 227.975 1075.91 237.891 1075.53C261.573 1083.59 266.804 1102.05 258.854 1122.26 251.51 1123.87 247.807 1122.99 245.13 1123.06 242.452 1123.12 242.012 1121.68 242.619 1119.97 241.699 1110.32 244.586 1102.18 219.062 1102.97 209.962 1107.28 201.192 1110.92 198.546 1120.62L198.181 1122.27 199.054 1122.87C209.408 1111.87 213.202 1110.89 218.066 1109.51 232.214 1102.87 242.747 1107.86 238.418 1130.89L241.858 1124.87C246.616 1124.32 246.061 1124.31 248.728 1126.35 249.289 1127.97 249.264 1130.18 249.531 1132.09 249.754 1130 249.266 1127.57 250.201 1125.48 253.356 1123.5 259.9 1124.53 263.055 1125.68 270.684 1127.09 270.279 1133.46 269.749 1139.04 267.359 1152.65 259.931 1161.7 249.843 1167.03L248.085 1167.9 247.843 1168.55C247.724 1169.27 248.205 1169.75 249.816 1170.41 255.841 1172.39 253.582 1176.62 252.075 1178.35 242.563 1194.02 223.009 1201.51 208.978 1193.3 207.388 1190.85 206.552 1187.9 204.208 1185.95 201.28 1177.96 195.254 1173.56 189.397 1167.99 186.579 1167.19 185.603 1165.46 181.865 1166.74 180.903 1167.16 181.991 1168.19 183.622 1170.5 187.848 1172.73 188.49 1176.58 191.656 1180.6L202.619 1194.64C207.249 1200.23 210.457 1204.16 212.493 1210.67 220.527 1227.49 208.058 1236.2 195.673 1221.53L176.76 1195.97 172.158 1192.21C168.169 1186.23 170.205 1186.09 174.752 1187.96 176.984 1187.98 178.378 1192.44 180.777 1189.04 180.247 1187.12 178.378 1186.2 177.179 1184.78 167.006 1182.41 157.167 1182.04 146.659 1177.66 137.195 1175.15 136.266 1167.96 131.069 1163.11 128.684 1157.84 125.672 1145.44 138.977 1131.91 147.848 1122.01 149.94 1123.64 169.354 1123.27 176.216 1114.91 171.405 1093.91 206.259 1087.81 203.79 1086.14 204.46 1086.72 203.372 1086.18L203.647 1086.03 202.329 1086.18C176.713 1089.66 173.303 1105.73 164.71 1116.63 128.392 1120.02 125.546 1139.79 123.538 1153.38 101.948 1161.78 85.5458 1151.65 76.3406 1127.48L76.5465 1127.45C74.1348 1120.11 73.0619 1115.94 75.0017 1107.44 77.9027 1097.14 86.6615 1073.64 114.165 1079.54 110.985 1077.48 110.149 1075.09 96.0898 1074.36 96.6477 1070.07 101.724 1063.61 113.329 1059.49 118.461 1057.43 121.585 1054.04 128.726 1053.31 128.113 1057.43 129.507 1059.88 129.898 1063.17 132.353 1056.6 138.322 1047.36 151.823 1042.96 154.25 1041.62 158.418 1040.99 163.004 1041Z" fill="#AC987A" fill-rule="evenodd"/></g></svg>