<svg width="160" height="164" xmlns="http://www.w3.org/2000/svg" xmlns:xlink="http://www.w3.org/1999/xlink" xml:space="preserve" overflow="hidden"><defs><clipPath id="clip0"><rect x="1406" y="1313" width="160" height="164"/></clipPath></defs><g clip-path="url(#clip0)" transform="translate(-1406 -1313)"><path d="M1431.77 1341.81C1440.23 1312.76 1473.32 1303.31 1496.09 1324.49 1490.73 1327.89 1491.95 1330.29 1491.06 1335.17 1491.06 1342.12 1491.13 1361.19 1491.06 1368.15 1492.73 1379.28 1494.63 1383.85 1499 1392.15 1493.75 1403.85 1481.02 1414.59 1470.71 1415.99 1456.75 1416.44 1440.87 1403.47 1434.55 1383.56 1429.11 1379.59 1427.53 1376.82 1427.07 1369.49 1426.41 1358.79 1430.73 1359.11 1430.32 1356.24 1430.8 1351.43 1430.4 1346.7 1431.77 1341.81Z" fill="#A08A6E" fill-rule="evenodd"/><path d="M1446.53 1410C1464.38 1424.62 1475.78 1421.92 1490.91 1410.08L1519 1428.63C1509.26 1442.59 1512.39 1457.18 1512.53 1466.21 1476.24 1477.06 1429.09 1471.55 1406.74 1458.88 1406.09 1457.69 1402.59 1440.44 1419.53 1428.63L1441.73 1417.82C1444.97 1414.96 1445.66 1412.81 1446.53 1410Z" fill="#A08A6E" fill-rule="evenodd"/><path d="M1516 1474.77C1520.91 1477.54 1535.75 1477.76 1539.21 1475.24 1539.27 1470.96 1538.61 1467.51 1539.39 1462.39 1545.05 1453.16 1551.96 1444.53 1558.34 1435.72 1559.58 1431.16 1558.9 1429.27 1557.74 1425.25 1555.97 1420.6 1550.81 1410.84 1548.17 1407.99 1547.52 1407.27 1546.97 1406.07 1546.61 1406.44 1546.25 1406.81 1545.84 1408.34 1546.01 1410.19 1543.71 1422.15 1537.97 1430.66 1537.11 1431.62L1540.78 1415.25C1542.72 1408.32 1543.04 1404.08 1539.21 1402.15 1533.36 1400.57 1534 1411.66 1528.21 1421.68 1524.58 1428.18 1520.41 1433.26 1517.32 1441.2 1515.62 1447.59 1515.84 1453.2 1516.72 1461.43L1516 1474.77Z" fill="#A08A6E" fill-rule="evenodd"/><path d="M1526 1417C1525.9 1418.26 1523.56 1422.87 1521.79 1425 1520.18 1423.82 1519.95 1422.33 1520.01 1420.78 1520.62 1419.15 1523.02 1417.64 1526 1417Z" fill="#A08A6E" fill-rule="evenodd"/><path d="M1516.12 1378.11C1515.92 1378.07 1515.77 1378.12 1515.67 1378.29 1514.85 1379.61 1521.75 1389.84 1532.59 1389.46 1543.43 1389.08 1548.93 1379.37 1547.84 1378.37 1546.75 1377.36 1544.38 1382.82 1532.27 1382.96 1521.67 1383.09 1517.54 1378.4 1516.12 1378.11ZM1514.52 1350.7C1512.71 1350.82 1510.64 1351.38 1507.93 1352.77 1509.26 1355.98 1511.12 1357.53 1514.6 1359.55 1520.58 1360.32 1522.56 1359.96 1526.28 1358.12 1525.34 1355.59 1522.86 1352.22 1518.41 1351.05 1517.7 1350.9 1516.99 1350.77 1516.25 1350.71 1515.69 1350.67 1515.12 1350.66 1514.52 1350.7ZM1549.35 1350.7C1548.74 1350.66 1548.17 1350.67 1547.62 1350.71 1546.88 1350.77 1546.17 1350.9 1545.45 1351.05 1541 1352.22 1538.52 1355.59 1537.59 1358.12 1541.3 1359.96 1543.29 1360.32 1549.26 1359.55 1552.74 1357.53 1554.61 1355.98 1555.94 1352.77 1553.22 1351.38 1551.15 1350.82 1549.35 1350.7ZM1562.7 1326C1564.19 1326.07 1565.04 1327.2 1565.75 1329 1566.43 1333.67 1565.5 1351.04 1565.67 1362.84 1562.67 1390.95 1549.56 1399.09 1545.89 1402.61 1543.54 1398.31 1540.78 1397.49 1537.32 1397.3 1531.23 1399.92 1531.33 1404.36 1529.29 1408 1516.11 1406.42 1503.88 1393.74 1499.83 1382.72 1494.21 1371.84 1494.88 1350.19 1495.22 1331.54 1495.19 1330.19 1494.69 1329.24 1498.4 1327.74 1505.58 1328.5 1510.84 1333.52 1531.99 1332.89 1553.15 1332.25 1553.56 1328.53 1560.98 1326.31 1561.64 1326.08 1562.21 1325.98 1562.7 1326Z" fill="#A08A6E" fill-rule="evenodd"/></g></svg>