<svg width="138" height="173" xmlns="http://www.w3.org/2000/svg" xmlns:xlink="http://www.w3.org/1999/xlink" xml:space="preserve" overflow="hidden"><g transform="translate(-115 -1300)"><path d="M133.015 1438.62C120.829 1443.37 119.83 1456.79 133.015 1463.34L240.81 1463.34C238.313 1454.8 239.511 1445.66 240.81 1438.62ZM203.768 1327.91C202.203 1327.94 201.637 1328.97 201.771 1330.1 201.737 1341.89 201.704 1353.68 201.671 1365.48 201.937 1368.3 203.502 1369.13 206.365 1366.47L210.96 1362.49 216.454 1367.17C218.352 1368.76 220.449 1368.27 220.649 1365.68L220.549 1331.69C220.483 1329.67 221.015 1328.74 218.252 1328.01ZM134.592 1314.22C133.293 1314.22 132.239 1315.27 132.239 1316.57L132.239 1424.12C132.239 1425.41 133.293 1426.46 134.592 1426.46L134.592 1426.46C135.891 1426.46 136.944 1425.41 136.944 1424.12 136.944 1388.27 136.944 1352.42 136.944 1316.57 136.944 1315.27 135.891 1314.22 134.592 1314.22ZM243.677 1300C251.846 1301.11 252.556 1305.8 253 1309.3 252.822 1350.93 252.645 1392.57 252.467 1434.2 251.846 1437.08 250.026 1438.23 248.205 1439.25 248.161 1447.31 248.383 1453.91 248.472 1461.71 254.643 1464.5 253.755 1469.15 249.005 1473L135.8 1472.2C122.97 1470.61 114.802 1461.31 115.29 1448.29 115.113 1404.26 114.935 1360.24 115.024 1315.68 115.778 1311.34 117.332 1302.08 130.473 1300.27Z" fill="#AC987A" fill-rule="evenodd"/></g></svg>