<svg width="162" height="153" xmlns="http://www.w3.org/2000/svg" xmlns:xlink="http://www.w3.org/1999/xlink" xml:space="preserve" overflow="hidden"><g transform="translate(-1402 -308)"><path d="M1440.2 385.644 1440.22 385.836C1440.62 387.793 1442.35 389.265 1444.42 389.265 1446.5 389.265 1448.23 387.793 1448.63 385.836L1448.65 385.644 1448.71 386.317C1448.71 388.688 1446.79 390.61 1444.42 390.61 1442.05 390.61 1440.13 388.688 1440.13 386.317ZM1539.36 385.609C1545.66 385.515 1552.52 387.969 1558.83 394.564 1564.75 401.902 1566.01 413.403 1560.3 422.737L1557.61 435.465 1561.23 447.428C1561.66 448.773 1562.8 450.84 1560.26 451.038L1536.3 451.066C1535.3 450.892 1534.8 450.038 1534.56 449.226L1533.63 445.701C1533.04 444.884 1532.83 443.601 1530.16 443.676 1527.34 443.506 1525.16 444.95 1522.6 444.568 1519.82 443.501 1520.11 442.86 1518.86 442.006 1518.55 439.462 1519.09 439.212 1519.2 437.815 1518.79 437.249 1517.28 435.96 1517.18 435.054L1517.87 433.412C1516.59 432.912 1516.33 432.666 1515.69 432.039 1515.81 430.963 1516.26 430.014 1516.68 429.108L1515.69 427.282 1512.97 426.829C1511.63 425.833 1511.01 425.729 1511.5 423.204L1516.71 414.144C1515.46 405.343 1516.71 398.325 1523.28 391.945 1527.33 388.347 1533.07 385.704 1539.36 385.609ZM1444.42 379.374C1446.79 379.374 1448.71 381.296 1448.71 383.667L1448.65 384.34 1448.63 384.148C1448.23 382.191 1446.5 380.719 1444.42 380.719 1442.35 380.72 1440.62 382.191 1440.22 384.148L1440.2 384.34 1440.13 383.667C1440.13 381.296 1442.05 379.374 1444.42 379.374ZM1446.71 377.569C1450.81 377.569 1454.14 380.892 1454.14 384.992 1454.14 389.092 1450.81 392.415 1446.71 392.415L1445.55 392.298 1445.88 392.265C1449.26 391.572 1451.81 388.579 1451.81 384.992 1451.81 381.405 1449.26 378.412 1445.88 377.72L1445.55 377.686ZM1442.13 377.569 1443.29 377.686 1442.96 377.72C1439.58 378.412 1437.03 381.405 1437.03 384.992 1437.03 388.579 1439.58 391.572 1442.96 392.264L1443.29 392.298 1442.13 392.415C1438.03 392.415 1434.71 389.092 1434.71 384.992 1434.71 380.892 1438.03 377.569 1442.13 377.569ZM1444.22 374.405 1441.72 374.616C1434.91 375.739 1427.16 380.621 1422.03 385.56 1427 389.566 1434.87 395.102 1441.72 396.443L1444.22 396.706 1446.73 396.443C1453.57 395.102 1461.44 389.566 1466.41 385.56 1461.29 380.621 1453.53 375.739 1446.72 374.616ZM1511.63 349.925 1511.38 350.023C1510.97 350.681 1513.92 355.225 1518.79 356.205L1519.93 356.298 1521.07 356.205C1525.94 355.225 1528.89 350.681 1528.48 350.023L1528.22 349.925C1527.62 350.048 1526.14 351.58 1522.91 352.307L1519.93 352.599 1516.95 352.307C1513.71 351.58 1512.24 350.048 1511.63 349.925ZM1446.98 343.646C1458.25 343.815 1468.51 348.544 1475.77 354.983 1487.52 366.401 1489.76 378.959 1487.52 394.709L1496.85 410.923C1497.72 415.441 1496.61 415.627 1494.21 417.409L1489.35 418.219 1487.57 421.488C1488.32 423.109 1489.14 424.807 1489.35 426.732 1488.2 427.855 1487.74 428.294 1485.45 429.189L1486.69 432.128C1486.49 433.75 1483.79 436.055 1483.07 437.069 1483.27 439.568 1484.23 440.016 1483.67 444.568 1481.44 446.096 1481.95 447.245 1476.98 449.154 1472.4 449.838 1468.5 447.253 1463.46 447.557 1458.68 447.422 1458.3 449.719 1457.25 451.18L1455.58 457.489C1455.15 458.941 1454.26 460.47 1452.46 460.782L1409.59 460.732C1405.03 460.377 1407.09 456.678 1407.85 454.271L1414.33 432.863 1409.52 410.087C1399.3 393.383 1401.55 372.802 1412.15 359.67 1423.44 347.868 1435.71 343.477 1446.98 343.646ZM1529.13 334.31C1528.79 334.288 1528.47 334.293 1528.15 334.319 1527.73 334.354 1527.33 334.424 1526.92 334.512 1524.39 335.177 1522.98 337.095 1522.45 338.539 1524.56 339.588 1525.69 339.791 1529.09 339.351 1531.06 338.2 1532.12 337.321 1532.88 335.493 1531.33 334.7 1530.16 334.378 1529.13 334.31ZM1510.72 334.31C1509.7 334.378 1508.52 334.7 1506.98 335.493 1507.73 337.321 1508.79 338.2 1510.77 339.351 1514.16 339.791 1515.29 339.588 1517.4 338.539 1516.87 337.095 1515.46 335.177 1512.93 334.512 1512.53 334.424 1512.12 334.354 1511.7 334.319 1511.39 334.293 1511.06 334.288 1510.72 334.31ZM1411.36 333.669C1411.9 333.656 1412.46 333.852 1412.88 334.259L1421.02 342.014C1421.87 342.829 1421.91 344.181 1421.09 345.035 1420.28 345.89 1418.92 345.922 1418.07 345.108L1409.93 337.352C1409.08 336.538 1409.05 335.185 1409.86 334.331 1410.27 333.904 1410.81 333.682 1411.36 333.669ZM1427.84 322.836C1428.67 322.82 1429.47 323.294 1429.83 324.102L1435.1 335.914C1435.58 336.992 1435.1 338.255 1434.02 338.736 1432.94 339.217 1431.68 338.732 1431.2 337.655L1425.93 325.843C1425.45 324.765 1425.93 323.502 1427.01 323.021 1427.28 322.901 1427.56 322.841 1427.84 322.836ZM1449.43 322.521C1450.6 322.584 1451.51 323.59 1451.45 324.769L1450.88 335.368C1450.81 336.547 1449.81 337.451 1448.63 337.388 1447.45 337.325 1446.55 336.318 1446.61 335.14L1447.18 324.54C1447.24 323.361 1448.25 322.457 1449.43 322.521ZM1501.56 321.234C1505.14 321.616 1507.87 323.852 1516.55 324.163L1519.93 324.166 1523.31 324.163C1531.99 323.852 1534.72 321.616 1538.29 321.234 1540.4 322.092 1540.11 322.633 1540.1 323.4 1540.29 334.019 1540.67 346.353 1537.48 352.55 1535.18 358.822 1528.23 366.041 1520.74 366.944L1519.93 366.969 1519.12 366.944C1511.63 366.041 1504.68 358.822 1502.38 352.55 1499.19 346.353 1499.56 334.019 1499.76 323.4 1499.74 322.633 1499.46 322.092 1501.56 321.234ZM1486.47 308.808 1552.48 308.808C1558.83 308.808 1563.99 313.961 1563.99 320.318L1563.99 366.356C1563.99 372.713 1558.83 377.866 1552.48 377.866L1528.29 378.241 1510.81 394.43C1508.37 396.254 1506.85 397.09 1505.11 394.43L1505.49 377.861 1492.88 377.866 1492.46 375.1 1491.94 373.077 1509.59 373.073C1511.19 373.807 1510.43 381.914 1509.97 388.806 1516.33 383.688 1527.1 371.502 1529.05 373.453L1554.95 373.077C1557.21 373.077 1559.05 371.242 1559.05 368.978L1559.05 318.039C1559.05 315.776 1557.21 313.941 1554.95 313.941L1483.82 313.941C1481.56 313.941 1479.72 315.776 1479.72 318.039L1479.72 351.539 1476.49 348.598 1474.96 347.456 1474.96 320.318C1474.96 313.961 1480.11 308.808 1486.47 308.808Z" fill="#A08A6E" fill-rule="evenodd"/></g></svg>