<svg width="136" height="170" xmlns="http://www.w3.org/2000/svg" xmlns:xlink="http://www.w3.org/1999/xlink" xml:space="preserve" overflow="hidden"><defs><clipPath id="clip0"><rect x="1418" y="1560" width="136" height="170"/></clipPath></defs><g clip-path="url(#clip0)" transform="translate(-1418 -1560)"><path d="M1441.64 1635.61 1440.47 1638.83C1439.09 1643.28 1438.35 1648.02 1438.35 1652.93 1438.35 1679.12 1459.49 1700.35 1485.57 1700.35 1511.65 1700.35 1532.79 1679.12 1532.79 1652.93 1532.79 1648.02 1532.04 1643.28 1530.66 1638.83L1529.49 1635.61 1529.08 1637.04C1521.91 1658.32 1505.13 1673.24 1485.57 1673.24 1466.01 1673.24 1449.22 1658.32 1442.06 1637.04ZM1524.61 1614.53C1518.01 1614.53 1510.64 1616.5 1506.65 1619.97 1508.24 1621.96 1513.03 1622.87 1518.48 1623.19 1524.25 1622.85 1533.88 1621.56 1535.07 1619.49 1531.59 1617.54 1532.26 1615.46 1524.61 1614.53ZM1448.09 1614.53C1440.44 1615.46 1441.11 1617.54 1437.62 1619.49 1438.81 1621.56 1448.45 1622.85 1454.22 1623.19 1459.67 1622.87 1464.47 1621.96 1466.06 1619.97 1462.07 1616.5 1454.7 1614.53 1448.09 1614.53ZM1523.46 1586.75C1512.88 1586.3 1501.86 1594.59 1496.41 1600.33 1495.63 1604.65 1494.53 1608.77 1494.07 1613.3 1493.6 1617.83 1493.89 1625.68 1494.3 1631.89 1495.03 1622.94 1495.38 1621.06 1497.34 1615.07 1505.08 1607.83 1511.01 1601.08 1521.7 1595.95 1528.91 1594.39 1532.26 1594.87 1538.45 1599.14L1541.23 1601.16 1541.67 1601.52C1540.59 1599 1539.03 1595.44 1533.67 1590.53 1530.46 1588.02 1526.99 1586.9 1523.46 1586.75ZM1449.24 1586.75C1445.72 1586.9 1442.24 1588.02 1439.03 1590.53 1433.66 1595.44 1432.1 1599 1431.02 1601.52L1431.47 1601.12 1431.4 1601.21 1431.85 1600.9 1431.53 1601.52 1431.97 1601.16 1434.71 1599.14C1436.24 1598.07 1437.59 1597.24 1438.87 1596.62L1442.19 1595.5 1444.29 1595.28 1446.01 1595.21 1451.01 1595.95C1456.35 1598.51 1460.51 1601.48 1464.3 1604.72L1469.3 1609.39 1475.3 1615.07C1477.24 1621.06 1477.58 1622.94 1478.3 1631.89L1478.34 1631 1478.42 1631.89C1478.63 1628.78 1479 1625.7 1478.97 1622.68L1478.74 1620.28 1478.75 1617.24C1478.72 1615.77 1478.65 1614.43 1478.53 1613.3 1478.07 1608.77 1476.99 1604.65 1476.22 1600.33L1475.97 1600.09 1476.31 1600.33C1474.95 1598.89 1473.24 1597.3 1471.27 1595.72L1469.31 1594.38 1464.76 1591.22C1460.06 1588.49 1454.73 1586.53 1449.51 1586.75L1449.4 1586.77ZM1483.06 1560 1488.06 1560 1488.06 1560.04 1500.32 1560.04C1514.74 1560.23 1529.02 1561.25 1544.05 1565.13 1549.09 1574.86 1551.96 1581.37 1551.87 1595.91 1555.11 1625.08 1555.11 1653.45 1548.64 1676.2 1534.14 1700.04 1512.3 1721.05 1489.78 1728.66L1485.93 1729.8 1485.93 1730 1485.6 1729.9 1485.27 1730C1485.27 1729.93 1485.27 1729.87 1485.27 1729.8L1481.47 1728.66C1459.21 1721.05 1437.62 1700.04 1423.3 1676.2 1416.9 1653.45 1416.9 1625.08 1420.1 1595.91 1420.01 1581.37 1422.85 1574.86 1427.83 1565.13 1442.69 1561.25 1456.8 1560.23 1471.05 1560.04L1483.06 1560.04Z" fill="#A08A6E" fill-rule="evenodd"/></g></svg>