<svg width="125" height="129" xmlns="http://www.w3.org/2000/svg" xmlns:xlink="http://www.w3.org/1999/xlink" xml:space="preserve" overflow="hidden"><defs><clipPath id="clip0"><rect x="126" y="1571" width="125" height="129"/></clipPath></defs><g clip-path="url(#clip0)" transform="translate(-126 -1571)"><path d="M173.5 1581.56C153.096 1581.56 136.556 1598.1 136.556 1618.5 136.556 1638.9 153.096 1655.44 173.5 1655.44 193.904 1655.44 210.444 1638.9 210.444 1618.5 210.444 1598.1 193.904 1581.56 173.5 1581.56ZM173.5 1571C199.734 1571 221 1592.27 221 1618.5 221 1644.73 199.734 1666 173.5 1666 147.267 1666 126 1644.73 126 1618.5 126 1592.27 147.267 1571 173.5 1571Z" fill="#A08A6E" fill-rule="evenodd"/><path d="M220.172 1652.78 246.808 1679.42C251.29 1683.9 251.29 1691.17 246.808 1695.65 242.326 1700.13 235.059 1700.13 230.576 1695.65L202.972 1668.04 204.751 1667.14 215.962 1657.91Z" fill="#A08A6E" fill-rule="evenodd"/></g></svg>