<svg width="190" height="180" xmlns="http://www.w3.org/2000/svg" xmlns:xlink="http://www.w3.org/1999/xlink" xml:space="preserve" overflow="hidden"><g transform="translate(-1398 -555)"><path d="M1553.67 617.906C1546.59 618.465 1539.29 621.725 1533.47 627.554L1506.51 654.512 1542.55 690.549 1569.5 663.592C1581.16 651.934 1582.54 634.417 1572.59 624.466 1567.62 619.49 1560.75 617.348 1553.67 617.906ZM1554.48 610.579C1562.81 610.579 1571.13 613.755 1577.49 620.107 1590.19 632.81 1590.19 653.406 1577.49 666.109L1518.29 725.304C1505.59 738.007 1484.99 738.007 1472.29 725.304 1459.59 712.6 1459.59 692.004 1472.29 679.301L1531.48 620.107C1537.83 613.755 1546.16 610.579 1554.48 610.579ZM1442.76 555.2 1476.65 555.2C1480.24 555.2 1483.14 558.106 1483.14 561.692L1483.14 592.503 1513.95 592.503C1517.54 592.503 1520.45 595.41 1520.45 598.995L1520.45 619.866 1500.93 639.379 1483.14 639.379 1483.14 657.169 1463.63 676.682 1442.76 676.682C1439.17 676.682 1436.27 673.776 1436.27 670.19L1436.27 639.379 1405.45 639.379C1401.87 639.379 1398.96 636.472 1398.96 632.887L1398.96 598.995C1398.96 595.409 1401.87 592.503 1405.45 592.503L1436.27 592.503 1436.27 561.692C1436.27 558.106 1439.17 555.2 1442.76 555.2Z" fill="#A08A6E" fill-rule="evenodd"/></g></svg>