<svg width="104" height="146" xmlns="http://www.w3.org/2000/svg" xmlns:xlink="http://www.w3.org/1999/xlink" xml:space="preserve" overflow="hidden"><defs><clipPath id="clip0"><rect x="132" y="1805" width="104" height="146"/></clipPath></defs><g clip-path="url(#clip0)" transform="translate(-132 -1805)"><path d="M144.606 1916.19C154.63 1885.91 165.023 1871.61 210.172 1842.19 179.279 1869.57 159.559 1888.15 150.604 1920.87 148.029 1933.29 147.344 1938.63 147.071 1946.28 146.988 1952.36 153.562 1952.61 154.465 1946.77 155.04 1937.15 156.437 1931.23 157.916 1923.09 184.044 1924.49 201.381 1917.34 216.088 1901.88 235.314 1879.19 241.415 1859.58 230.877 1808.65 229.645 1805.5 229.029 1802.67 224.222 1807.91L200.004 1823.39C176.259 1830.81 177.101 1831.51 165.865 1835.72 122.155 1857.51 127.434 1897.85 144.606 1916.19Z" fill="#AC987A" fill-rule="evenodd"/></g></svg>