<svg width="194" height="98" xmlns="http://www.w3.org/2000/svg" xmlns:xlink="http://www.w3.org/1999/xlink" xml:space="preserve" overflow="hidden"><defs><clipPath id="clip0"><rect x="1389" y="843" width="194" height="98"/></clipPath></defs><g clip-path="url(#clip0)" transform="translate(-1389 -843)"><path d="M114.599 49.3878 114.896 52.3445C114.896 62.764 106.494 71.211 96.1289 71.211 85.7642 71.211 77.3622 62.764 77.3622 52.3445L77.6586 49.3878 77.7434 50.2333C79.4933 58.8304 87.0599 65.2976 96.1289 65.2976 105.198 65.2976 112.765 58.8304 114.514 50.2333ZM96.1289 21.8339C106.494 21.8339 114.896 30.2807 114.896 40.7004L114.599 43.6571 114.514 42.8116C112.765 34.2145 105.198 27.7473 96.1289 27.7473 87.0599 27.7473 79.4933 34.2145 77.7434 42.8116L77.6586 43.6571 77.3622 40.7004C77.3622 30.2807 85.7642 21.8339 96.1289 21.8339ZM86.1157 13.9015 91.2009 14.4169 89.7467 14.5642C74.9605 17.6061 63.8377 30.7585 63.8377 46.5224 63.8377 62.2864 74.9605 75.4388 89.7467 78.4807L91.2009 78.628 86.1157 79.1435C68.195 79.1435 53.6673 64.5385 53.6673 46.5224 53.6673 28.5065 68.195 13.9015 86.1157 13.9015ZM106.142 13.9015C124.063 13.9015 138.591 28.5065 138.591 46.5224 138.591 64.5385 124.063 79.1435 106.142 79.1435L101.057 78.6282 102.511 78.4808C117.297 75.4389 128.42 62.2865 128.42 46.5224 128.42 30.7585 117.297 17.6062 102.511 14.5644L101.057 14.417ZM96.9999 0 86.0844 0.925505C56.3004 5.86211 22.4069 27.3135 0 49.0164 21.728 66.6237 56.1306 90.9476 86.0525 96.8405L96.9999 98 107.947 96.8405C137.869 90.9476 172.272 66.6237 194 49.0164 171.593 27.3135 137.699 5.86211 107.915 0.925505Z" fill="#A08A6E" fill-rule="evenodd" transform="matrix(-1 0 0 1 1583 843)"/></g></svg>