<svg width="126" height="145" xmlns="http://www.w3.org/2000/svg" xmlns:xlink="http://www.w3.org/1999/xlink" xml:space="preserve" overflow="hidden"><defs><clipPath id="clip0"><rect x="1423" y="1812" width="126" height="145"/></clipPath></defs><g clip-path="url(#clip0)" transform="translate(-1423 -1812)"><path d="M1451.82 1896.75C1451.38 1896.72 1451.14 1896.92 1451.13 1897.4 1451 1901.29 1460.28 1932.76 1485.26 1932.94 1510.23 1933.13 1520.74 1902.4 1520.87 1898.51 1509.24 1902.21 1506.52 1908.88 1486 1908.51 1468.04 1908.18 1454.91 1896.95 1451.82 1896.75ZM1522.98 1853.72C1495.53 1854.58 1503.69 1869.51 1494.04 1877.41 1492.06 1880.37 1504.99 1873.83 1511.11 1871.49 1517.23 1869.14 1528.79 1872.97 1530.77 1863.34 1528.17 1859.02 1528.17 1857.67 1522.98 1853.72ZM1449.9 1853.72C1444.71 1857.67 1444.71 1859.02 1442.11 1863.34 1444.09 1872.97 1455.65 1869.14 1461.77 1871.49 1467.89 1873.83 1480.81 1880.37 1478.83 1877.41 1469.19 1869.51 1477.35 1854.58 1449.9 1853.72ZM1537.84 1812.14C1544.11 1811.38 1547.67 1813.67 1548.32 1822.85 1555.83 1925.43 1498.58 1957.25 1488.46 1957 1478.34 1956.75 1409.72 1942.12 1425.29 1823.57 1432.34 1797.97 1445.35 1824.55 1484.76 1823.69 1509.4 1823.16 1527.38 1813.4 1537.84 1812.14Z" fill="#A08A6E" fill-rule="evenodd"/></g></svg>