<svg width="115" height="137" xmlns="http://www.w3.org/2000/svg" xmlns:xlink="http://www.w3.org/1999/xlink" xml:space="preserve" overflow="hidden"><defs><clipPath id="clip0"><rect x="126" y="561" width="115" height="137"/></clipPath></defs><g clip-path="url(#clip0)" transform="translate(-126 -561)"><path d="M152.788 610.038C154.716 609.74 156.723 611.185 158.414 615.355 159.839 620.077 159.131 624.459 158.36 628.341 157.536 633.403 154.157 642.704 157.661 644.439L179.387 638.751 190.787 624.048C198.854 617.179 202.941 621.258 200.144 626.302 188.995 645.798 188.816 645.87 183.474 648.087 194.157 646.907 201.955 637.767 208.749 628.877 213.606 623.422 215.65 620.703 218.428 619.862 226.889 618.932 225.455 622.51 225.419 623.833 215.345 636.712 213.122 636.819 206.813 641.863 196.165 649.411 184.227 650.52 172.934 654.849L160.962 661.115 170.288 657.924C180.244 654.701 190.586 651.75 201.381 647.712 216.475 640.217 222.049 629.181 232.625 621.687 238.917 619.88 242.036 624.567 240.692 628.019 231.855 639.091 220.436 652.523 213.696 658.176 198.513 668.872 182.685 678.495 168.094 689.513 165.298 692.142 162.555 696.489 159.705 697.401 156.371 697.991 158.038 698.313 151.8 697.562 136.025 695.523 127.995 691.82 126.256 690.479 125.951 689.495 125.808 689.102 126.471 687.367 128.259 683.905 130.108 680.444 131.608 676.44L132.569 673.49 132.494 673.522C133.964 663.47 131.024 654.384 136.904 643.365 140.991 635.245 146.046 629.968 149.487 612.243 150.502 611.022 151.631 610.216 152.788 610.038Z" fill="#A08A6E" fill-rule="evenodd"/><path d="M178.352 561.239C176.269 560.793 174.133 560.775 171.943 562.95L157.523 579.904C156.206 583.38 157.613 584.557 159.126 585.841L199.288 606.164C202.492 607.768 205.696 606.913 207.619 604.88L221.718 587.98C222.484 585.68 221.754 582.311 218.728 580.92L178.352 561.239Z" fill="#A08A6E" fill-rule="evenodd"/></g></svg>