<svg width="196" height="159" xmlns="http://www.w3.org/2000/svg" xmlns:xlink="http://www.w3.org/1999/xlink" xml:space="preserve" overflow="hidden"><defs><clipPath id="clip0"><rect x="77" y="804" width="196" height="159"/></clipPath></defs><g clip-path="url(#clip0)" transform="translate(-77 -804)"><path d="M150.041 850.023 82.8429 859.194C76.7554 858.405 74.0792 850.871 81.5195 847.952 103.282 842.183 123.397 835.468 146.806 830.646 155.432 827.708 181.233 835.537 186.801 839.225 196.388 847.607 203.858 857.172 212.387 866.146L268.851 870.435C275.585 873.009 273.379 880.434 267.527 882.416L215.386 886.765C208.681 887.337 207.975 887.435 202.682 883.156L185.919 869.104 164.157 888.776 188.86 901.941C196.653 907.059 196.447 912.65 194.595 918.359L183.096 950.457 191.566 954.007C195.291 958.148 195.016 959.687 190.742 962.882L168.98 962.763C163.059 961.935 163.608 959.805 163.922 956.728L172.832 918.063 147.541 905.787 151.511 919.691C152.158 924.266 153.041 926.12 146.747 932.707L120.162 953.888C128.749 957.478 124.691 961.363 122.162 962.882 116.81 962.388 112.065 962.724 104.987 963 99.1057 960.515 97.3412 956.61 100.047 950.93 109.703 940.566 129.122 923.694 129.014 919.838L119.309 897.355C117.055 891.291 117.623 883.215 123.132 877.387L150.041 850.023Z" fill="#AC987A" fill-rule="evenodd"/><path d="M191 827C191 814.298 201.298 804 214 804 226.702 804 237 814.298 237 827 237 839.703 226.702 850 214 850 201.298 850 191 839.703 191 827Z" fill="#AC987A" fill-rule="evenodd"/></g></svg>