<svg width="158" height="159" xmlns="http://www.w3.org/2000/svg" xmlns:xlink="http://www.w3.org/1999/xlink" xml:space="preserve" overflow="hidden"><defs><clipPath id="clip0"><rect x="1406" y="1064" width="158" height="159"/></clipPath></defs><g clip-path="url(#clip0)" transform="translate(-1406 -1064)"><path d="M1485 1074.28C1447.01 1074.28 1416.22 1105.27 1416.22 1143.5 1416.22 1181.73 1447.01 1212.72 1485 1212.72 1522.99 1212.72 1553.78 1181.73 1553.78 1143.5 1553.78 1105.27 1522.99 1074.28 1485 1074.28ZM1485 1064C1528.63 1064 1564 1099.59 1564 1143.5 1564 1187.41 1528.63 1223 1485 1223 1441.37 1223 1406 1187.41 1406 1143.5 1406 1099.59 1441.37 1064 1485 1064Z" fill="#AC987A" fill-rule="evenodd"/><path d="M1481 1084C1481 1081.79 1482.79 1080 1485 1080L1485 1080C1487.21 1080 1489 1081.79 1489 1084L1489 1092C1489 1094.21 1487.21 1096 1485 1096L1485 1096C1482.79 1096 1481 1094.21 1481 1092Z" fill="#AC987A" fill-rule="evenodd"/><path d="M1481 1195C1481 1192.79 1482.79 1191 1485 1191L1485 1191C1487.21 1191 1489 1192.79 1489 1195L1489 1203C1489 1205.21 1487.21 1207 1485 1207L1485 1207C1482.79 1207 1481 1205.21 1481 1203Z" fill="#AC987A" fill-rule="evenodd"/><path d="M1425.5 1148C1423.01 1148 1421 1145.99 1421 1143.5L1421 1143.5C1421 1141.01 1423.01 1139 1425.5 1139L1433.5 1139C1435.99 1139 1438 1141.01 1438 1143.5L1438 1143.5C1438 1145.99 1435.99 1148 1433.5 1148Z" fill="#AC987A" fill-rule="evenodd"/><path d="M1536.5 1148C1534.01 1148 1532 1145.99 1532 1143.5L1532 1143.5C1532 1141.01 1534.01 1139 1536.5 1139L1543.5 1139C1545.98 1139 1548 1141.01 1548 1143.5L1548 1143.5C1548 1145.99 1545.98 1148 1543.5 1148Z" fill="#AC987A" fill-rule="evenodd"/><path d="M1485.2 1138.73C1482.87 1138.73 1480.98 1140.64 1480.98 1143 1480.98 1145.36 1482.87 1147.27 1485.2 1147.27 1487.54 1147.27 1489.43 1145.36 1489.43 1143 1489.43 1140.64 1487.54 1138.73 1485.2 1138.73ZM1522.45 1101.04C1524.95 1100.72 1525.53 1102.14 1524.55 1106.04L1499.63 1155.96 1452.56 1183.05C1446.54 1186.98 1443.72 1184.87 1448.19 1177.6L1471.8 1130.19 1519.3 1101.92C1520.57 1101.45 1521.62 1101.15 1522.45 1101.04Z" fill="#AC987A" fill-rule="evenodd"/></g></svg>