<svg width="24" height="24" xmlns="http://www.w3.org/2000/svg">
  <defs>
    <radialGradient id="rageGlow" cx="50%" cy="40%" r="60%">
      <stop offset="0%" stop-color="#DC2626" stop-opacity="1"/>
      <stop offset="70%" stop-color="#B91C1C" stop-opacity="0.8"/>
      <stop offset="100%" stop-color="#991B1B" stop-opacity="0.6"/>
    </radialGradient>
  </defs>
  <!-- Rage flames -->
  <path d="M8,4 Q12,2 16,4 Q18,6 16,10 Q14,14 12,16 Q10,14 8,10 Q6,6 8,4 Z" fill="url(#rageGlow)" stroke="#7F1D1D" stroke-width="1"/>
  <path d="M6,8 Q10,6 14,8 Q16,10 14,14 Q12,18 10,20 Q8,18 6,14 Q4,10 6,8 Z" fill="url(#rageGlow)" stroke="#7F1D1D" stroke-width="1"/>
  <path d="M10,2 Q14,0 18,2 Q20,4 18,8 Q16,12 14,14 Q12,12 10,8 Q8,4 10,2 Z" fill="url(#rageGlow)" stroke="#7F1D1D" stroke-width="1"/>
  <!-- Inner glow -->
  <path d="M10,4 Q12,3 14,4 Q15,5 14,8 Q13,11 12,13 Q11,11 10,8 Q9,5 10,4 Z" fill="#DC2626" opacity="0.3"/>
</svg>
