<svg width="24" height="24" xmlns="http://www.w3.org/2000/svg">
  <defs>
    <radialGradient id="reactionGlow" cx="50%" cy="40%" r="60%">
      <stop offset="0%" stop-color="#60A5FA" stop-opacity="1"/>
      <stop offset="70%" stop-color="#3B82F6" stop-opacity="0.8"/>
      <stop offset="100%" stop-color="#1D4ED8" stop-opacity="0.6"/>
    </radialGradient>
  </defs>
  <path d="M8,8 Q12,4 16,8 Q18,10 18,14 Q16,18 12,20 Q8,18 6,14 Q6,10 8,8 Z" fill="url(#reactionGlow)" stroke="#1E40AF" stroke-width="1"/>
  <path d="M6,12 Q8,10 10,12 Q12,14 10,16 Q8,18 6,16 Q4,14 6,12 Z" fill="#60A5FA" opacity="0.3"/>
  <path d="M18,12 Q20,10 22,12 Q24,14 22,16 Q20,18 18,16 Q16,14 18,12 Z" fill="#60A5FA" opacity="0.3"/>
</svg>
