<svg width="373" height="657" xmlns="http://www.w3.org/2000/svg" xmlns:xlink="http://www.w3.org/1999/xlink" xml:space="preserve" overflow="hidden"><g transform="translate(437 -203)"><path d="M-406.5 311.167C-406.5 303.619-400.381 297.5-392.833 297.5L-287.167 297.5C-279.619 297.5-273.5 303.619-273.5 311.167L-273.5 365.833C-273.5 373.381-279.619 379.5-287.167 379.5L-392.833 379.5C-400.381 379.5-406.5 373.381-406.5 365.833Z" stroke="#413D32" stroke-width="9.16667" stroke-miterlimit="8" fill="#1D1B15" fill-rule="evenodd"/><text fill="#C5AE8D" font-family="Times New Roman,Times New Roman_MSFontService,sans-serif" font-weight="700" font-size="50" transform="matrix(1 0 0 1 -389.723 357)">STR</text><path d="M-406.5 404C-406.5 396.544-400.456 390.5-393 390.5L-287 390.5C-279.544 390.5-273.5 396.544-273.5 404L-273.5 458C-273.5 465.456-279.544 471.5-287 471.5L-393 471.5C-400.456 471.5-406.5 465.456-406.5 458Z" stroke="#413D32" stroke-width="9.16667" stroke-miterlimit="8" fill="#1D1B15" fill-rule="evenodd"/><text fill="#C5AE8D" font-family="Times New Roman,Times New Roman_MSFontService,sans-serif" font-weight="700" font-size="50" transform="matrix(1 0 0 1 -394.02 449)">DEX</text><path d="M-406.5 496.167C-406.5 488.619-400.381 482.5-392.833 482.5L-287.167 482.5C-279.619 482.5-273.5 488.619-273.5 496.167L-273.5 550.833C-273.5 558.381-279.619 564.5-287.167 564.5L-392.833 564.5C-400.381 564.5-406.5 558.381-406.5 550.833Z" stroke="#413D32" stroke-width="9.16667" stroke-miterlimit="8" fill="#1D1B15" fill-rule="evenodd"/><text fill="#C5AE8D" font-family="Times New Roman,Times New Roman_MSFontService,sans-serif" font-weight="700" font-size="50" transform="matrix(1 0 0 1 -396.598 541)">CON</text><path d="M-406.5 587.167C-406.5 579.619-400.381 573.5-392.833 573.5L-287.167 573.5C-279.619 573.5-273.5 579.619-273.5 587.167L-273.5 641.833C-273.5 649.381-279.619 655.5-287.167 655.5L-392.833 655.5C-400.381 655.5-406.5 649.381-406.5 641.833Z" stroke="#413D32" stroke-width="9.16667" stroke-miterlimit="8" fill="#1D1B15" fill-rule="evenodd"/><text fill="#C5AE8D" font-family="Times New Roman,Times New Roman_MSFontService,sans-serif" font-weight="700" font-size="50" transform="matrix(1 0 0 1 -385.426 633)">INT</text><path d="M-406.5 680C-406.5 672.544-400.456 666.5-393 666.5L-287 666.5C-279.544 666.5-273.5 672.544-273.5 680L-273.5 734C-273.5 741.456-279.544 747.5-287 747.5L-393 747.5C-400.456 747.5-406.5 741.456-406.5 734Z" stroke="#413D32" stroke-width="9.16667" stroke-miterlimit="8" fill="#1D1B15" fill-rule="evenodd"/><text fill="#C5AE8D" font-family="Times New Roman,Times New Roman_MSFontService,sans-serif" font-weight="700" font-size="50" transform="matrix(1 0 0 1 -389.437 725)">WIS</text><path d="M-406.5 771.167C-406.5 763.619-400.381 757.5-392.833 757.5L-287.167 757.5C-279.619 757.5-273.5 763.619-273.5 771.167L-273.5 825.833C-273.5 833.381-279.619 839.5-287.167 839.5L-392.833 839.5C-400.381 839.5-406.5 833.381-406.5 825.833Z" stroke="#413D32" stroke-width="9.16667" stroke-miterlimit="8" fill="#1D1B15" fill-rule="evenodd"/><text fill="#C5AE8D" font-family="Times New Roman,Times New Roman_MSFontService,sans-serif" font-weight="700" font-size="50" transform="matrix(1 0 0 1 -396.598 817)">CHA</text><path d="M-217.5 311.167C-217.5 303.619-211.381 297.5-203.833 297.5L-98.167 297.5C-90.619 297.5-84.5001 303.619-84.5001 311.167L-84.5001 365.833C-84.5001 373.381-90.619 379.5-98.167 379.5L-203.833 379.5C-211.381 379.5-217.5 373.381-217.5 365.833Z" stroke="#413D32" stroke-width="9.16667" stroke-miterlimit="8" fill="#1D1B15" fill-rule="evenodd"/><text fill="#C5AE8D" font-family="Times New Roman,Times New Roman_MSFontService,sans-serif" font-weight="700" font-size="50" transform="matrix(1 0 0 1 -200.338 357)">STR</text><path d="M-217.5 404C-217.5 396.544-211.456 390.5-204 390.5L-98.0004 390.5C-90.5443 390.5-84.5001 396.544-84.5001 404L-84.5001 458C-84.5001 465.456-90.5443 471.5-98.0004 471.5L-204 471.5C-211.456 471.5-217.5 465.456-217.5 458Z" stroke="#413D32" stroke-width="9.16667" stroke-miterlimit="8" fill="#1D1B15" fill-rule="evenodd"/><text fill="#C5AE8D" font-family="Times New Roman,Times New Roman_MSFontService,sans-serif" font-weight="700" font-size="50" transform="matrix(1 0 0 1 -204.634 449)">DEX</text><path d="M-217.5 496.167C-217.5 488.619-211.381 482.5-203.833 482.5L-98.167 482.5C-90.619 482.5-84.5001 488.619-84.5001 496.167L-84.5001 550.833C-84.5001 558.381-90.619 564.5-98.167 564.5L-203.833 564.5C-211.381 564.5-217.5 558.381-217.5 550.833Z" stroke="#413D32" stroke-width="9.16667" stroke-miterlimit="8" fill="#1D1B15" fill-rule="evenodd"/><text fill="#C5AE8D" font-family="Times New Roman,Times New Roman_MSFontService,sans-serif" font-weight="700" font-size="50" transform="matrix(1 0 0 1 -207.213 541)">CON</text><path d="M-217.5 587.167C-217.5 579.619-211.381 573.5-203.833 573.5L-98.167 573.5C-90.619 573.5-84.5001 579.619-84.5001 587.167L-84.5001 641.833C-84.5001 649.381-90.619 655.5-98.167 655.5L-203.833 655.5C-211.381 655.5-217.5 649.381-217.5 641.833Z" stroke="#413D32" stroke-width="9.16667" stroke-miterlimit="8" fill="#1D1B15" fill-rule="evenodd"/><text fill="#C5AE8D" font-family="Times New Roman,Times New Roman_MSFontService,sans-serif" font-weight="700" font-size="50" transform="matrix(1 0 0 1 -196.041 633)">INT</text><path d="M-217.5 680C-217.5 672.544-211.456 666.5-204 666.5L-98.0004 666.5C-90.5443 666.5-84.5001 672.544-84.5001 680L-84.5001 734C-84.5001 741.456-90.5443 747.5-98.0004 747.5L-204 747.5C-211.456 747.5-217.5 741.456-217.5 734Z" stroke="#413D32" stroke-width="9.16667" stroke-miterlimit="8" fill="#1D1B15" fill-rule="evenodd"/><text fill="#C5AE8D" font-family="Times New Roman,Times New Roman_MSFontService,sans-serif" font-weight="700" font-size="50" transform="matrix(1 0 0 1 -200.051 725)">WIS</text><path d="M-217.5 771.167C-217.5 763.619-211.381 757.5-203.833 757.5L-98.167 757.5C-90.619 757.5-84.5001 763.619-84.5001 771.167L-84.5001 825.833C-84.5001 833.381-90.619 839.5-98.167 839.5L-203.833 839.5C-211.381 839.5-217.5 833.381-217.5 825.833Z" stroke="#413D32" stroke-width="9.16667" stroke-miterlimit="8" fill="#1D1B15" fill-rule="evenodd"/><text fill="#C5AE8D" font-family="Times New Roman,Times New Roman_MSFontService,sans-serif" font-weight="700" font-size="50" transform="matrix(1 0 0 1 -207.213 817)">CHA</text><path d="M-421 221.667C-421 214.119-414.881 208-407.333 208L-265.667 208C-258.119 208-252 214.119-252 221.667L-252 276.333C-252 283.881-258.119 290-265.667 290L-407.333 290C-414.881 290-421 283.881-421 276.333Z" fill="#1D1B15" fill-rule="evenodd"/><text fill="#C5AE8D" font-family="Times New Roman,Times New Roman_MSFontService,sans-serif" font-weight="700" font-size="50" transform="matrix(1 0 0 1 -405.654 268)">Check</text><path d="M-236 221.667C-236 214.119-229.881 208-222.333 208L-80.667 208C-73.1189 208-67 214.119-67 221.667L-67 276.333C-67 283.881-73.1189 290-80.667 290L-222.333 290C-229.881 290-236 283.881-236 276.333Z" fill="#1D1B15" fill-rule="evenodd"/><text fill="#C5AE8D" font-family="Times New Roman,Times New Roman_MSFontService,sans-serif" font-weight="700" font-size="50" transform="matrix(1 0 0 1 -201.483 268)">Save</text></g></svg>